<svg width="911" height="142" viewBox="0 0 911 142" fill="none" xmlns="http://www.w3.org/2000/svg">
<path d="M185.639 142H156.59V116.177H185.639V142ZM261.48 142H232.43V116.177H261.48V142ZM305.044 142H276.001V116.177H305.044V142ZM348.615 142H319.565V116.177H348.615V142ZM469.633 142H440.59V116.177H469.633V142ZM547.087 142H518.044V116.177H547.087V142ZM653.583 142H576.129V116.177H653.583V142ZM711.675 142H682.633V116.177H711.675V142ZM789.129 142H760.087V116.177H789.129V142ZM871.424 142H842.381V116.177H871.424V142ZM28.7611 141.307H0V115.738H28.7611V141.307ZM185.639 112.95H156.59V87.1348H185.639V112.95ZM261.48 112.95H232.43V87.1348H261.48V112.95ZM305.044 112.95H276.001V87.1348H305.044V112.95ZM348.615 112.95H319.565V87.1348H348.615V112.95ZM469.633 112.95H440.59V87.1348H469.633V112.95ZM547.087 112.95H518.044V87.1348H547.087V112.95ZM590.657 112.95H561.608V87.1348H590.657V112.95ZM668.104 112.95H639.062V87.1348H668.104V112.95ZM724.583 112.95H695.54V87.1348H724.583V112.95ZM776.221 112.95H747.179V87.1348H776.221V112.95ZM871.424 112.95H842.381V87.1348H871.424V112.95ZM57.5223 112.545H28.7611V86.9769H57.5223V112.545ZM261.48 83.9078H156.59V58.0922H261.48V83.9078ZM305.044 83.9078H276.001V58.0922H305.044V83.9078ZM409.927 83.9078H319.565V58.0922H409.927V83.9078ZM530.952 83.9078H440.59V58.0922H530.952V83.9078ZM590.657 83.9078H561.608V58.0922H590.657V83.9078ZM668.104 83.9078H639.062V58.0922H668.104V83.9078ZM763.314 83.9078H708.448V58.0922H763.314V83.9078ZM884.331 83.9078H829.466V58.0922H884.331V83.9078ZM86.2834 83.7843H57.5223V58.2157H86.2834V83.7843ZM57.5223 55.0231H28.7611V29.4546H57.5223V55.0231ZM185.639 54.8652H156.59V29.0426H185.639V54.8652ZM261.48 54.8652H232.43V29.0426H261.48V54.8652ZM305.044 54.8652H276.001V29.0426H305.044V54.8652ZM348.615 54.8652H319.565V29.0426H348.615V54.8652ZM426.069 54.8652H397.019V29.0426H426.069V54.8652ZM469.633 54.8652H440.59V29.0426H469.633V54.8652ZM547.087 54.8652H518.044V29.0426H547.087V54.8652ZM590.657 54.8652H561.608V29.0426H590.657V54.8652ZM668.104 54.8652H639.062V29.0426H668.104V54.8652ZM724.583 54.8652H695.54V29.0426H724.583V54.8652ZM776.221 54.8652H747.179V29.0426H776.221V54.8652ZM845.608 54.8652H816.558V29.0426H845.608V54.8652ZM897.239 54.8652H868.197V29.0426H897.239V54.8652ZM28.7611 26.262H0V0.693453H28.7611V26.262ZM246.952 25.8157H171.111V0H246.952V25.8157ZM305.044 25.8157H276.001V0H305.044V25.8157ZM409.927 25.8157H319.565V0H409.927V25.8157ZM530.952 25.8157H440.59V0H530.952V25.8157ZM653.583 25.8157H576.129V0H653.583V25.8157ZM711.675 25.8157H682.633V0H711.675V25.8157ZM789.129 25.8157H760.087V0H789.129V25.8157ZM832.7 25.8157H803.651V0H832.7V25.8157ZM910.147 25.8157H881.104V0H910.147V25.8157Z" fill="black"/>
</svg>
